<mxfile host="app.diagrams.net" modified="2022-06-04T03:23:52.152Z" agent="5.0 (Windows NT 10.0; Win64; x64) AppleWebKit/537.36 (KHTML, like Gecko) Chrome/102.0.5005.63 Safari/537.36" etag="Qf5CE6-wUOh39lnW64Z2" version="17.4.0" type="github">
  <diagram id="3gouR_O1PKPtJiG3tEKs" name="Page-1">
    <mxGraphModel dx="1550" dy="867" grid="1" gridSize="10" guides="1" tooltips="1" connect="1" arrows="1" fold="1" page="1" pageScale="1" pageWidth="827" pageHeight="1169" math="0" shadow="0">
      <root>
        <mxCell id="0" />
        <mxCell id="1" parent="0" />
        <mxCell id="WMh0jco0wfSIDa4CCNbl-11" style="edgeStyle=none;rounded=0;orthogonalLoop=1;jettySize=auto;html=1;entryX=0.507;entryY=0.106;entryDx=0;entryDy=0;entryPerimeter=0;fontSize=16;" edge="1" parent="1" source="WMh0jco0wfSIDa4CCNbl-1" target="WMh0jco0wfSIDa4CCNbl-10">
          <mxGeometry relative="1" as="geometry" />
        </mxCell>
        <mxCell id="WMh0jco0wfSIDa4CCNbl-1" value="Cảm biến" style="ellipse;whiteSpace=wrap;html=1;" vertex="1" parent="1">
          <mxGeometry x="190" y="50" width="140" height="90" as="geometry" />
        </mxCell>
        <mxCell id="WMh0jco0wfSIDa4CCNbl-17" style="edgeStyle=none;rounded=0;orthogonalLoop=1;jettySize=auto;html=1;entryX=0.96;entryY=0.7;entryDx=0;entryDy=0;fontSize=16;exitX=0.327;exitY=-0.004;exitDx=0;exitDy=0;exitPerimeter=0;entryPerimeter=0;" edge="1" parent="1" source="WMh0jco0wfSIDa4CCNbl-6" target="WMh0jco0wfSIDa4CCNbl-10">
          <mxGeometry relative="1" as="geometry">
            <Array as="points" />
          </mxGeometry>
        </mxCell>
        <mxCell id="WMh0jco0wfSIDa4CCNbl-38" style="edgeStyle=none;rounded=0;orthogonalLoop=1;jettySize=auto;html=1;entryX=0.16;entryY=-0.01;entryDx=0;entryDy=0;entryPerimeter=0;fontSize=16;" edge="1" parent="1" source="WMh0jco0wfSIDa4CCNbl-6" target="WMh0jco0wfSIDa4CCNbl-37">
          <mxGeometry relative="1" as="geometry" />
        </mxCell>
        <mxCell id="WMh0jco0wfSIDa4CCNbl-6" value="" style="rounded=0;whiteSpace=wrap;html=1;" vertex="1" parent="1">
          <mxGeometry x="360" y="530" width="340" height="200" as="geometry" />
        </mxCell>
        <mxCell id="WMh0jco0wfSIDa4CCNbl-8" style="edgeStyle=none;rounded=0;orthogonalLoop=1;jettySize=auto;html=1;entryX=0.953;entryY=0.308;entryDx=0;entryDy=0;entryPerimeter=0;" edge="1" parent="1" source="WMh0jco0wfSIDa4CCNbl-7" target="WMh0jco0wfSIDa4CCNbl-1">
          <mxGeometry relative="1" as="geometry" />
        </mxCell>
        <mxCell id="WMh0jco0wfSIDa4CCNbl-31" style="edgeStyle=none;rounded=0;orthogonalLoop=1;jettySize=auto;html=1;entryX=0.947;entryY=0.62;entryDx=0;entryDy=0;entryPerimeter=0;fontSize=16;exitX=0.5;exitY=1;exitDx=0;exitDy=0;" edge="1" parent="1" source="WMh0jco0wfSIDa4CCNbl-7" target="WMh0jco0wfSIDa4CCNbl-10">
          <mxGeometry relative="1" as="geometry" />
        </mxCell>
        <mxCell id="WMh0jco0wfSIDa4CCNbl-7" value="Điện thoại" style="ellipse;whiteSpace=wrap;html=1;" vertex="1" parent="1">
          <mxGeometry x="850" y="130" width="120" height="80" as="geometry" />
        </mxCell>
        <mxCell id="WMh0jco0wfSIDa4CCNbl-9" value="&lt;font style=&quot;font-size: 16px&quot;&gt;Yêu cầu đo&lt;/font&gt;" style="text;html=1;align=center;verticalAlign=middle;resizable=0;points=[];autosize=1;strokeColor=none;fillColor=none;" vertex="1" parent="1">
          <mxGeometry x="480" y="85" width="100" height="20" as="geometry" />
        </mxCell>
        <mxCell id="WMh0jco0wfSIDa4CCNbl-15" style="edgeStyle=none;rounded=0;orthogonalLoop=1;jettySize=auto;html=1;entryX=-0.002;entryY=0.064;entryDx=0;entryDy=0;entryPerimeter=0;fontSize=16;exitX=0.647;exitY=0.928;exitDx=0;exitDy=0;exitPerimeter=0;" edge="1" parent="1" source="WMh0jco0wfSIDa4CCNbl-10" target="WMh0jco0wfSIDa4CCNbl-6">
          <mxGeometry relative="1" as="geometry" />
        </mxCell>
        <mxCell id="WMh0jco0wfSIDa4CCNbl-19" style="edgeStyle=none;rounded=0;orthogonalLoop=1;jettySize=auto;html=1;exitX=0.88;exitY=0.25;exitDx=0;exitDy=0;exitPerimeter=0;fontSize=16;" edge="1" parent="1" source="WMh0jco0wfSIDa4CCNbl-10" target="WMh0jco0wfSIDa4CCNbl-7">
          <mxGeometry relative="1" as="geometry" />
        </mxCell>
        <mxCell id="WMh0jco0wfSIDa4CCNbl-10" value="Firebase" style="ellipse;shape=cloud;whiteSpace=wrap;html=1;fontSize=16;" vertex="1" parent="1">
          <mxGeometry x="90" y="300" width="240" height="130" as="geometry" />
        </mxCell>
        <mxCell id="WMh0jco0wfSIDa4CCNbl-12" value="realtime data" style="text;html=1;align=center;verticalAlign=middle;resizable=0;points=[];autosize=1;strokeColor=none;fillColor=none;fontSize=16;" vertex="1" parent="1">
          <mxGeometry x="120" y="220" width="110" height="20" as="geometry" />
        </mxCell>
        <mxCell id="WMh0jco0wfSIDa4CCNbl-27" style="edgeStyle=none;rounded=0;orthogonalLoop=1;jettySize=auto;html=1;fontSize=16;" edge="1" parent="1" source="WMh0jco0wfSIDa4CCNbl-14" target="WMh0jco0wfSIDa4CCNbl-24">
          <mxGeometry relative="1" as="geometry" />
        </mxCell>
        <mxCell id="WMh0jco0wfSIDa4CCNbl-14" value="Machine learning" style="ellipse;whiteSpace=wrap;html=1;aspect=fixed;fontSize=16;" vertex="1" parent="1">
          <mxGeometry x="480" y="580" width="105" height="105" as="geometry" />
        </mxCell>
        <mxCell id="WMh0jco0wfSIDa4CCNbl-16" value="dữ liệu từ cảm biến" style="text;html=1;align=center;verticalAlign=middle;resizable=0;points=[];autosize=1;strokeColor=none;fillColor=none;fontSize=16;" vertex="1" parent="1">
          <mxGeometry x="160" y="470" width="150" height="20" as="geometry" />
        </mxCell>
        <mxCell id="WMh0jco0wfSIDa4CCNbl-20" value="realtime data" style="text;html=1;align=center;verticalAlign=middle;resizable=0;points=[];autosize=1;strokeColor=none;fillColor=none;fontSize=16;" vertex="1" parent="1">
          <mxGeometry x="400" y="260" width="110" height="20" as="geometry" />
        </mxCell>
        <mxCell id="WMh0jco0wfSIDa4CCNbl-26" style="edgeStyle=none;rounded=0;orthogonalLoop=1;jettySize=auto;html=1;entryX=0;entryY=0.5;entryDx=0;entryDy=0;fontSize=16;" edge="1" parent="1" source="WMh0jco0wfSIDa4CCNbl-23" target="WMh0jco0wfSIDa4CCNbl-14">
          <mxGeometry relative="1" as="geometry" />
        </mxCell>
        <mxCell id="WMh0jco0wfSIDa4CCNbl-23" value="data" style="text;html=1;align=center;verticalAlign=middle;resizable=0;points=[];autosize=1;strokeColor=none;fillColor=none;fontSize=16;" vertex="1" parent="1">
          <mxGeometry x="370" y="622.5" width="50" height="20" as="geometry" />
        </mxCell>
        <mxCell id="WMh0jco0wfSIDa4CCNbl-34" style="edgeStyle=none;rounded=0;orthogonalLoop=1;jettySize=auto;html=1;entryX=0;entryY=0.5;entryDx=0;entryDy=0;entryPerimeter=0;fontSize=16;exitX=1.054;exitY=0.545;exitDx=0;exitDy=0;exitPerimeter=0;" edge="1" parent="1" source="WMh0jco0wfSIDa4CCNbl-24" target="WMh0jco0wfSIDa4CCNbl-33">
          <mxGeometry relative="1" as="geometry">
            <mxPoint x="710" y="633" as="sourcePoint" />
          </mxGeometry>
        </mxCell>
        <mxCell id="WMh0jco0wfSIDa4CCNbl-24" value="kết quả" style="text;html=1;align=center;verticalAlign=middle;resizable=0;points=[];autosize=1;strokeColor=none;fillColor=none;fontSize=16;" vertex="1" parent="1">
          <mxGeometry x="625" y="622.5" width="70" height="20" as="geometry" />
        </mxCell>
        <mxCell id="WMh0jco0wfSIDa4CCNbl-25" value="Server&lt;br&gt;" style="text;html=1;align=center;verticalAlign=middle;resizable=0;points=[];autosize=1;strokeColor=none;fillColor=none;fontSize=16;" vertex="1" parent="1">
          <mxGeometry x="500" y="540" width="60" height="20" as="geometry" />
        </mxCell>
        <mxCell id="WMh0jco0wfSIDa4CCNbl-30" value="Store user data" style="text;html=1;align=center;verticalAlign=middle;resizable=0;points=[];autosize=1;strokeColor=none;fillColor=none;fontSize=16;" vertex="1" parent="1">
          <mxGeometry x="707" y="602.5" width="120" height="20" as="geometry" />
        </mxCell>
        <mxCell id="WMh0jco0wfSIDa4CCNbl-32" value="REST API" style="text;html=1;align=center;verticalAlign=middle;resizable=0;points=[];autosize=1;strokeColor=none;fillColor=none;fontSize=16;" vertex="1" parent="1">
          <mxGeometry x="530" y="320" width="90" height="20" as="geometry" />
        </mxCell>
        <mxCell id="WMh0jco0wfSIDa4CCNbl-33" value="MongoDB" style="shape=cylinder3;whiteSpace=wrap;html=1;boundedLbl=1;backgroundOutline=1;size=15;fontSize=16;" vertex="1" parent="1">
          <mxGeometry x="880" y="562.5" width="110" height="140" as="geometry" />
        </mxCell>
        <mxCell id="WMh0jco0wfSIDa4CCNbl-36" value="Store user data(JSON)" style="text;html=1;align=center;verticalAlign=middle;resizable=0;points=[];autosize=1;strokeColor=none;fillColor=none;fontSize=16;" vertex="1" parent="1">
          <mxGeometry x="380" y="430" width="180" height="20" as="geometry" />
        </mxCell>
        <mxCell id="WMh0jco0wfSIDa4CCNbl-37" value="API(JSON)" style="rounded=1;whiteSpace=wrap;html=1;fontSize=16;" vertex="1" parent="1">
          <mxGeometry x="730" y="790" width="120" height="60" as="geometry" />
        </mxCell>
        <mxCell id="WMh0jco0wfSIDa4CCNbl-42" value="" style="html=1;verticalLabelPosition=bottom;align=center;labelBackgroundColor=#ffffff;verticalAlign=top;strokeWidth=2;strokeColor=#0080F0;shadow=0;dashed=0;shape=mxgraph.ios7.icons.wifi;pointerEvents=1;fontSize=16;" vertex="1" parent="1">
          <mxGeometry x="209.99999999999997" y="169.5" width="29.7" height="21" as="geometry" />
        </mxCell>
        <mxCell id="WMh0jco0wfSIDa4CCNbl-43" value="" style="html=1;verticalLabelPosition=bottom;align=center;labelBackgroundColor=#ffffff;verticalAlign=top;strokeWidth=2;strokeColor=#0080F0;shadow=0;dashed=0;shape=mxgraph.ios7.icons.wifi;pointerEvents=1;fontSize=16;" vertex="1" parent="1">
          <mxGeometry x="530.3" y="119" width="29.7" height="21" as="geometry" />
        </mxCell>
      </root>
    </mxGraphModel>
  </diagram>
</mxfile>
